<svg width="582" height="70" viewBox="0 0 582 70" fill="none" xmlns="http://www.w3.org/2000/svg">
<path d="M104.424 0.839966C109.032 0.839966 113.384 1.76797 117.48 3.62396C121.576 5.47997 125.128 8.00797 128.136 11.208C131.208 14.344 133.608 18.024 135.336 22.248C137.128 26.408 138.024 30.792 138.024 35.4C138.024 40.008 137.128 44.424 135.336 48.648C133.608 52.808 131.208 56.488 128.136 59.688C125.128 62.824 121.576 65.32 117.48 67.176C113.384 69.032 109.032 69.96 104.424 69.96H34.344C29.736 69.96 25.384 69.032 21.288 67.176C17.192 65.32 13.608 62.824 10.536 59.688C7.528 56.488 5.128 52.808 3.336 48.648C1.608 44.424 0.744003 40.008 0.744003 35.4C0.744003 30.792 1.608 26.408 3.336 22.248C5.128 18.024 7.528 14.344 10.536 11.208C13.608 8.00797 17.192 5.47997 21.288 3.62396C25.384 1.76797 29.736 0.839966 34.344 0.839966H104.424ZM98.184 25.8H40.584C37.896 25.8 35.624 26.728 33.768 28.584C31.912 30.44 30.984 32.712 30.984 35.4C30.984 38.088 31.912 40.36 33.768 42.216C35.624 44.072 37.896 45 40.584 45H98.184C100.872 45 103.144 44.072 105 42.216C106.856 40.36 107.784 38.088 107.784 35.4C107.784 32.712 106.856 30.44 105 28.584C103.144 26.728 100.872 25.8 98.184 25.8Z" fill="white"/>
<path d="M194.623 1.79996H224.959V23.88H291.967V1.79996H322.303V69H291.967V46.92H224.959V69H194.623V1.79996Z" fill="white"/>
<path d="M467.274 69H433.098L425.322 59.4H366.186L358.41 69H324.234L378.666 1.79996H412.842L467.274 69ZM409.77 40.2L395.754 22.92L381.738 40.2H409.77Z" fill="white"/>
<path d="M581.551 69H490.352C485.744 69 481.392 68.136 477.296 66.408C473.2 64.616 469.616 62.216 466.544 59.208C463.536 56.136 461.136 52.552 459.344 48.456C457.616 44.36 456.752 40.008 456.752 35.4C456.752 30.792 457.616 26.44 459.344 22.344C461.136 18.248 463.536 14.696 466.544 11.688C469.616 8.61597 473.2 6.21597 477.296 4.48796C481.392 2.69596 485.744 1.79996 490.352 1.79996H581.551V26.76H496.592C493.904 26.76 491.631 27.528 489.775 29.064C487.919 30.6 486.992 32.712 486.992 35.4C486.992 38.088 487.919 40.2 489.775 41.736C491.631 43.272 493.904 44.04 496.592 44.04H581.551V69Z" fill="white"/>
</svg>
