<svg width="1315" height="376" viewBox="0 0 1315 376" fill="none" xmlns="http://www.w3.org/2000/svg">
<path d="M1046.71 0H1186.29L1180.86 97.4815L1272.35 61.893L1315 194.189L1220.4 219.72L1281.66 293.992L1168.45 376L1116.5 296.313L1064.55 376L951.342 293.992L1012.6 219.72L918 194.189L960.646 61.893L1052.14 97.4815L1046.71 0Z" fill="#FE0000"/>
<path d="M212.846 201.229H57.3048C49.4459 201.229 42.0235 200.073 35.0378 197.76C28.0521 195.361 21.9396 192.149 16.7003 188.123C11.5701 184.011 7.47691 179.214 4.42066 173.732C1.47355 168.25 0 162.425 0 156.257C0 150.089 1.47355 144.264 4.42066 138.782C7.47691 133.3 11.5701 128.546 16.7003 124.52C21.9396 120.408 28.0521 117.196 35.0378 114.883C42.0235 112.484 49.4459 111.285 57.3048 111.285H212.846V144.693H67.9471C63.3628 144.693 59.4879 145.721 56.3224 147.777C53.157 149.832 51.5743 152.659 51.5743 156.257C51.5743 159.855 53.157 162.682 56.3224 164.737C59.4879 166.793 63.3628 167.821 67.9471 167.821H212.846V201.229Z" fill="black"/>
<path d="M222.651 111.285H399.477C405.481 111.285 410.993 111.842 416.014 112.955C421.035 114.069 425.346 115.739 428.948 117.966C432.55 120.108 435.334 122.764 437.298 125.933C439.372 129.102 440.409 132.786 440.409 136.983C440.409 141.352 439.154 145.164 436.643 148.419C434.242 151.674 430.749 154.287 426.165 156.257C430.749 158.227 434.242 160.84 436.643 164.095C439.154 167.35 440.409 171.162 440.409 175.531C440.409 179.728 439.372 183.412 437.298 186.581C435.334 189.75 432.55 192.449 428.948 194.676C425.346 196.818 421.035 198.445 416.014 199.559C410.993 200.672 405.481 201.229 399.477 201.229H222.651V111.285ZM274.389 144.693H381.467C386.27 144.693 388.671 142.98 388.671 139.553C388.671 136.127 386.27 134.413 381.467 134.413H274.389V144.693ZM381.467 178.101C386.27 178.101 388.671 176.387 388.671 172.961C388.671 169.534 386.27 167.821 381.467 167.821H274.389V178.101H381.467Z" fill="black"/>
<path d="M664.983 201.229H613.245V183.24H546.116L512.879 201.229H447.224L482.098 182.341C476.641 181.313 471.729 179.642 467.363 177.33C463.106 175.017 459.449 172.276 456.393 169.106C453.446 165.937 451.154 162.467 449.517 158.698C447.988 154.929 447.224 151.117 447.224 147.263C447.224 142.723 448.261 138.311 450.335 134.028C452.409 129.745 455.411 125.933 459.34 122.592C463.27 119.166 468.072 116.425 473.748 114.369C479.424 112.313 485.864 111.285 493.068 111.285H664.983V201.229ZM613.245 142.123H506.167C501.364 142.123 498.962 143.836 498.962 147.263C498.962 150.689 501.364 152.402 506.167 152.402H613.245V142.123Z" fill="black"/>
<path d="M732.175 134.413C727.372 134.413 724.971 136.127 724.971 139.553V142.123H673.233V139.553C673.233 135.356 674.215 131.458 676.18 127.86C678.254 124.263 681.092 121.136 684.694 118.48C688.296 115.825 692.608 113.769 697.629 112.313C702.65 110.771 708.162 110 714.165 110H850.059C856.063 110 861.575 110.642 866.596 111.927C871.617 113.127 875.928 114.883 879.53 117.196C883.132 119.508 885.916 122.335 887.88 125.676C889.954 129.017 890.991 132.786 890.991 136.983C890.991 141.352 889.791 145.121 887.389 148.29C884.988 151.46 881.604 154.03 877.238 156C881.604 157.97 884.988 160.54 887.389 163.71C889.791 166.879 890.991 170.648 890.991 175.017C890.991 179.214 889.954 182.983 887.88 186.324C885.916 189.665 883.132 192.492 879.53 194.804C875.928 197.117 871.617 198.916 866.596 200.201C861.575 201.4 856.063 202 850.059 202H714.165C708.162 202 702.65 201.272 697.629 199.816C692.608 198.274 688.296 196.175 684.694 193.52C681.092 190.864 678.254 187.737 676.18 184.14C674.215 180.542 673.233 176.644 673.233 172.447V169.877H724.971V172.447C724.971 175.873 727.372 177.587 732.175 177.587H832.049C836.852 177.587 839.253 175.873 839.253 172.447C839.253 169.02 836.852 167.307 832.049 167.307H738.069V144.693H832.049C836.852 144.693 839.253 142.98 839.253 139.553C839.253 136.127 836.852 134.413 832.049 134.413H732.175Z" fill="black"/>
<path d="M899.242 111.285H950.98V129.274H1071.16C1078.36 129.274 1084.8 130.302 1090.48 132.358C1096.15 134.413 1100.95 137.155 1104.88 140.581C1108.81 143.922 1111.82 147.734 1113.89 152.017C1115.96 156.3 1117 160.711 1117 165.251C1117 169.706 1115.96 174.117 1113.89 178.486C1111.82 182.769 1108.81 186.624 1104.88 190.05C1100.95 193.391 1096.15 196.089 1090.48 198.145C1084.8 200.201 1078.36 201.229 1071.16 201.229H899.242V111.285ZM950.98 160.112V170.391H1058.06C1062.86 170.391 1065.26 168.678 1065.26 165.251C1065.26 161.825 1062.86 160.112 1058.06 160.112H950.98Z" fill="black"/>
</svg>
