<svg width="1269" height="101" viewBox="0 0 1269 101" fill="none" xmlns="http://www.w3.org/2000/svg">
<path d="M273.023 99.7215H73.5062C63.4253 99.7215 53.9045 98.5709 44.9438 96.2696C35.983 93.8831 28.1424 90.6869 21.4218 86.681C14.8412 82.5899 9.5908 77.8169 5.67047 72.362C1.89016 66.9072 0 61.1114 0 54.9747C0 48.838 1.89016 43.0422 5.67047 37.5873C9.5908 32.1325 14.8412 27.4021 21.4218 23.3962C28.1424 19.3051 35.983 16.1089 44.9438 13.8076C53.9045 11.4211 63.4253 10.2278 73.5062 10.2278H273.023V43.4684H87.1573C81.2768 43.4684 76.3064 44.4911 72.246 46.5367C68.1857 48.5823 66.1555 51.3949 66.1555 54.9747C66.1555 58.5544 68.1857 61.3671 72.246 63.4127C76.3064 65.4582 81.2768 66.481 87.1573 66.481H273.023V99.7215Z" fill="#FE0000"/>
<path d="M506.06 8.94937C516.141 8.94937 525.662 10.1852 534.623 12.657C543.583 15.1287 551.354 18.4954 557.935 22.757C564.655 26.9333 569.906 31.8342 573.686 37.4595C577.606 42.9996 579.566 48.838 579.566 54.9747C579.566 61.1114 577.606 66.9924 573.686 72.6177C569.906 78.1578 564.655 83.0586 557.935 87.3203C551.354 91.4966 543.583 94.8207 534.623 97.2924C525.662 99.7641 516.141 101 506.06 101H352.747C342.667 101 333.146 99.7641 324.185 97.2924C315.224 94.8207 307.384 91.4966 300.663 87.3203C294.083 83.0586 288.832 78.1578 284.912 72.6177C281.132 66.9924 279.241 61.1114 279.241 54.9747C279.241 48.838 281.132 42.9996 284.912 37.4595C288.832 31.8342 294.083 26.9333 300.663 22.757C307.384 18.4954 315.224 15.1287 324.185 12.657C333.146 10.1852 342.667 8.94937 352.747 8.94937H506.06ZM492.409 42.1899H366.399C360.518 42.1899 355.548 43.4257 351.487 45.8975C347.427 48.3692 345.397 51.3949 345.397 54.9747C345.397 58.5544 347.427 61.5802 351.487 64.0519C355.548 66.5236 360.518 67.7595 366.399 67.7595H492.409C498.29 67.7595 503.26 66.5236 507.32 64.0519C511.381 61.5802 513.411 58.5544 513.411 54.9747C513.411 51.3949 511.381 48.3692 507.32 45.8975C503.26 43.4257 498.29 42.1899 492.409 42.1899Z" fill="#FE0000"/>
<path d="M588.016 10.2278H808.535C817.776 10.2278 826.036 11.2506 833.317 13.2962C840.598 15.3418 846.758 18.0692 851.799 21.4785C856.839 24.8025 860.689 28.5954 863.349 32.857C866.01 37.1186 867.34 41.508 867.34 46.0253C867.34 49.8608 866.29 53.6536 864.19 57.4038C862.229 61.154 859.289 64.6059 855.369 67.7595C851.588 70.9131 846.898 73.6405 841.298 75.9418C835.837 78.243 829.607 79.9051 822.606 80.9278L867.34 99.7215H781.653L739.019 81.8228H654.382V99.7215H588.016V10.2278ZM654.382 40.9114V51.1392H791.733C797.894 51.1392 800.974 49.4346 800.974 46.0253C800.974 42.616 797.894 40.9114 791.733 40.9114H654.382Z" fill="#FE0000"/>
<path d="M875.872 10.2278H1148.89V33.2405H942.237V43.4684H1148.89V66.481H942.237V76.7089H1148.89V99.7215H875.872V10.2278Z" fill="#FE0000"/>
<path d="M1196.33 0H1234.14L1232.67 16.1089L1257.45 10.2278L1269 32.0899L1243.38 36.3089L1259.97 48.5823L1229.31 62.1342L1215.24 48.9658L1201.16 62.1342L1170.5 48.5823L1187.09 36.3089L1161.47 32.0899L1173.02 10.2278L1197.8 16.1089L1196.33 0Z" fill="#FE0000"/>
</svg>
